<svg xmlns="http://www.w3.org/2000/svg" xmlns:xlink="http://www.w3.org/1999/xlink" width="102" zoomAndPan="magnify" viewBox="0 0 76.5 91.499997" height="122" preserveAspectRatio="xMidYMid meet" version="1.0"><path fill="#00d492" d="M 38.414062 7.242188 C 30.320312 7.242188 24.328125 10.902344 20.515625 18.214844 C 19.816406 19.539062 18.257812 23.429688 18.023438 24.285156 C 16.46875 29.035156 15.300781 38.996094 15.300781 42.574219 L 15.300781 43.273438 L 22.226562 43.273438 C 22.460938 35.570312 23.316406 29.035156 25.105469 24.054688 C 25.960938 21.796875 26.972656 19.851562 28.140625 18.214844 C 30.632812 14.871094 33.980469 13.234375 38.335938 13.234375 C 43.082031 13.234375 46.042969 14.949219 47.832031 17.4375 L 55.457031 17.4375 C 53.199219 12.222656 48.453125 7.242188 38.414062 7.242188 Z M 41.761719 44.054688 L 41.761719 49.578125 L 12.1875 49.578125 L 12.1875 70.125 L 16.855469 70.125 C 17.324219 72.226562 18.179688 74.328125 18.804688 75.960938 L 6.195312 75.960938 L 6.195312 18.214844 L 19.660156 18.214844 C 18.804688 19.929688 18.023438 21.875 17.324219 24.054688 L 12.1875 24.054688 L 12.1875 44.054688 Z M 64.019531 18.214844 L 64.019531 24.054688 L 25.886719 24.054688 C 26.898438 21.5625 27.910156 19.851562 29.074219 18.214844 Z M 50.476562 24.753906 C 50.710938 26.542969 50.945312 29.5 51.023438 30.355469 L 57.636719 30.355469 C 57.636719 29.34375 57.558594 26.386719 57.402344 24.753906 Z M 49.933594 69.347656 L 57.636719 69.347656 L 57.636719 44.054688 L 43.316406 44.054688 L 43.316406 49.734375 L 51.101562 49.734375 L 51.101562 53.316406 C 51.101562 59.695312 50.867188 65.144531 49.933594 69.347656 Z M 46.976562 76.738281 C 44.875 79.695312 41.683594 81.097656 37.089844 81.097656 C 32.8125 81.097656 29.699219 79.308594 27.441406 75.960938 C 26.351562 74.328125 25.496094 72.382812 24.796875 70.125 C 23.082031 64.910156 22.382812 58.140625 22.226562 50.355469 L 15.222656 50.355469 C 15.222656 58.917969 16.46875 64.910156 17.558594 70.125 C 18.179688 72.226562 18.804688 74.171875 19.660156 75.960938 C 22.773438 82.808594 27.910156 86.933594 36.15625 86.933594 C 46.351562 86.933594 49.621094 82.109375 51.800781 76.972656 C 51.800781 81.332031 52.035156 83.976562 52.265625 86 L 57.636719 86 L 57.636719 76.738281 Z M 64.484375 70.125 L 64.484375 75.960938 L 28.296875 75.960938 C 27.128906 74.171875 26.429688 72.613281 25.496094 70.125 Z M 64.484375 70.125 " fill-opacity="1" fill-rule="nonzero"/></svg>